<svg width="307" height="80" viewBox="0 0 307 80" fill="none" xmlns="http://www.w3.org/2000/svg">
  <path fill-rule="evenodd" clip-rule="evenodd"
    d="M7.36712 10.6266C9.91707 12.7864 13.3116 15.6794 16.9735 18.8003C17.9622 19.643 18.9705 20.5024 19.9869 21.3684C27.5316 27.7965 35.4996 34.5706 38.955 37.3673C40.1424 38.3284 41.6157 38.8741 43.2076 38.8078C44.7606 38.7431 46.1307 38.1109 47.2288 37.2455C50.9555 34.3085 59.2598 27.4391 66.9857 21.0285C68.5699 19.7141 70.1282 18.4203 71.6188 17.1826C74.2817 14.9715 76.7288 12.9397 78.7218 11.29V74.7854C78.7218 74.7854 78.7218 74.7861 82.4053 74.7861L78.7218 74.7854C78.7218 76.8325 80.371 78.4927 82.4053 78.4927C84.4397 78.4927 86.0889 76.8332 86.0889 74.7861H82.4053C86.0889 74.7861 86.0889 74.7861 86.0889 74.7861V5.07856C86.0889 4.26204 85.8903 2.06839 83.7926 0.951729C81.5909 -0.220324 79.6391 0.996579 78.967 1.52629C77.6323 2.57814 72.7046 6.66975 66.8484 11.5323C65.3764 12.7545 63.8458 14.0254 62.2989 15.3089C54.7665 21.5589 46.8093 28.1407 43.0226 31.1433C39.4056 28.1855 31.9465 21.8443 24.7475 15.7107C23.7303 14.8441 22.7179 13.9812 21.7224 13.1327C15.3505 7.70197 9.67434 2.86425 7.91627 1.44128C7.19014 0.853566 5.82271 -0.0624826 4.11266 0.0033628C3.0857 0.0429059 1.86934 0.462366 0.982653 1.55633C0.167778 2.56169 0 3.68635 0 4.44183V74.3554C0 74.3554 0 74.3562 3.68356 74.3562L0 74.3554C0 76.4025 1.64919 78.0628 3.68356 78.0628C5.71793 78.0628 7.36712 76.4033 7.36712 74.3562H3.68356C7.36712 74.3562 7.36712 74.3562 7.36712 74.3562V10.6266Z"
    fill="white" />
  <path d="M64.1142 24.9789L77.5792 14.1394V25.5435" fill="white" />
  <path d="M8.60231 24.7314V13.3274L22.0672 24.1668" fill="white" />
  <path
    d="M33.152 56.0631C33.152 53.7601 33.5643 51.8931 34.0729 51.8931C34.5815 51.8931 34.9938 53.7601 34.9938 56.0631C34.9938 58.3661 34.5815 60.2331 34.0729 60.2331C33.5643 60.2331 33.152 58.3661 33.152 56.0631Z"
    fill="white" />
  <path
    d="M47.8863 56.0631C47.8863 53.7601 48.2986 51.8931 48.8071 51.8931C49.3157 51.8931 49.728 53.7601 49.728 56.0631C49.728 58.3661 49.3157 60.2331 48.8071 60.2331C48.2986 60.2331 47.8863 58.3661 47.8863 56.0631Z"
    fill="white" />
  <path fill-rule="evenodd" clip-rule="evenodd"
    d="M32.4838 50.444C32.794 50.1566 33.3338 49.8081 34.0729 49.8081C34.812 49.8081 35.3518 50.1566 35.6621 50.444C35.9612 50.7212 36.1501 51.0297 36.2656 51.251C36.499 51.698 36.6464 52.2077 36.7467 52.6622C36.9549 53.6049 37.0658 54.8062 37.0658 56.0631C37.0658 57.3199 36.9549 58.5213 36.7467 59.464C36.6464 59.9184 36.499 60.4282 36.2656 60.8751C36.1501 61.0964 35.9612 61.4049 35.6621 61.6821C35.3518 61.9696 34.812 62.318 34.0729 62.318C33.3338 62.318 32.794 61.9696 32.4838 61.6821C32.1847 61.4049 31.9958 61.0964 31.8802 60.8751C31.6469 60.4282 31.4994 59.9184 31.3991 59.464C31.1909 58.5213 31.08 57.3199 31.08 56.0631C31.08 54.8062 31.1909 53.6049 31.3991 52.6622C31.4994 52.2077 31.6469 51.698 31.8802 51.2511C31.9958 51.0297 32.1847 50.7212 32.4838 50.444ZM47.218 50.444C47.5282 50.1566 48.0681 49.8081 48.8071 49.8081C49.5462 49.8081 50.0861 50.1566 50.3963 50.444C50.6954 50.7212 50.8843 51.0297 50.9998 51.251C51.2332 51.698 51.3806 52.2077 51.481 52.6622C51.6892 53.6049 51.8 54.8062 51.8 56.0631C51.8 57.3199 51.6892 58.5213 51.481 59.464C51.3806 59.9184 51.2332 60.4282 50.9998 60.8751C50.8843 61.0964 50.6954 61.4049 50.3963 61.6821C50.0861 61.9696 49.5462 62.318 48.8071 62.318C48.0681 62.318 47.5282 61.9696 47.218 61.6821C46.9189 61.4049 46.73 61.0964 46.6144 60.8751C46.3811 60.4282 46.2337 59.9184 46.1333 59.464C45.9251 58.5213 45.8143 57.3199 45.8143 56.0631C45.8143 54.8062 45.9251 53.6049 46.1333 52.6622C46.2337 52.2077 46.3811 51.698 46.6144 51.2511C46.73 51.0297 46.9189 50.7212 47.218 50.444Z"
    fill="white" />
  <path
    d="M41.6067 67.025C40.7736 68.6119 39.0847 69.4202 37.5812 67.6298L37.4107 67.2094C37.4107 67.2094 37.3103 66.9563 37.5618 66.8552C37.8134 66.7542 37.9138 67.0073 37.9138 67.0073L38.0457 67.3492C39.3863 68.9457 40.7808 67.8692 41.3369 66.3144C41.575 65.5117 41.781 65.1492 41.8538 64.9794C41.8237 64.9779 41.7968 64.98 41.7728 64.9851C41.775 64.9498 41.7776 64.9142 41.7806 64.8782C41.7806 64.8782 41.7826 64.855 41.7786 64.8216C41.6687 64.807 41.4641 64.802 41.1329 64.7284C41.1329 64.7284 41.2635 64.561 41.5334 64.5838C41.7245 64.6 41.7689 64.7407 41.7786 64.8216C41.8906 64.8365 41.9043 64.8615 41.8538 64.9794C41.8579 64.9796 41.8621 64.9799 41.8664 64.9803C42.1363 65.0031 42.1136 65.2747 42.1136 65.2747C42.0836 65.6337 42.011 65.9863 41.9026 66.3202L41.6067 67.025Z"
    fill="white" />
  <path
    d="M42.1021 67.1717C42.9351 68.7586 44.6241 69.5669 46.1276 67.7765L46.2981 67.3561C46.2981 67.3561 46.3985 67.103 46.147 67.002C45.8954 66.9009 45.795 67.154 45.795 67.154L45.6631 67.4959C44.3225 69.0924 42.928 68.0159 42.3719 66.4612C42.1338 65.6584 41.9278 65.2959 41.855 65.1261C41.8851 65.1246 41.912 65.1268 41.936 65.1319C41.9337 65.0965 41.9311 65.0609 41.9281 65.0249C41.9281 65.0249 41.9262 65.0017 41.9302 64.9683C42.0401 64.9537 42.2446 64.9488 42.5759 64.8751C42.5759 64.8751 42.4453 64.7077 42.1754 64.7305C41.9843 64.7467 41.9399 64.8874 41.9302 64.9683C41.8182 64.9832 41.8045 65.0082 41.855 65.1261C41.8509 65.1264 41.8467 65.1266 41.8424 65.127C41.5725 65.1498 41.5952 65.4214 41.5952 65.4214C41.6252 65.7805 41.6978 66.133 41.8062 66.4669L42.1021 67.1717Z"
    fill="white" />
  <path
    d="M40.0521 64.5245C40.156 63.9453 41.3448 63.8458 41.9204 63.9503C42.496 64.0548 43.6582 64.1098 43.5543 64.6891C43.4504 65.2683 42.2616 66.4377 41.686 66.3332C41.1104 66.2287 39.9482 65.1037 40.0521 64.5245Z"
    fill="white" />
  <path
    d="M131.934 57.7323H132.015V60.9488C132.015 61.3886 131.852 61.7735 131.524 62.1034C131.196 62.3783 130.841 62.5158 130.458 62.5158H105.543C105.816 66.7494 106.991 69.7734 109.067 71.5878C111.143 73.3472 114.394 74.2269 118.82 74.2269C121.443 74.2269 123.874 73.4572 126.114 71.9177C126.879 71.3129 127.562 71.3678 128.163 72.0826C128.491 72.4125 129.092 73.0723 129.967 74.062C130.24 74.3918 130.349 74.8042 130.294 75.299C130.294 75.7389 130.103 76.0963 129.721 76.3712C126.442 78.7904 122.809 80 118.82 80C112.974 80 108.493 78.6529 105.379 75.9588C101.609 72.7149 99.7236 67.2717 99.7236 59.6292V59.5467C99.7236 52.0692 101.253 46.7359 104.313 43.547C106.991 40.6879 110.815 39.2584 115.788 39.2584C120.814 39.2584 124.694 40.6879 127.426 43.547C130.212 46.461 131.715 51.1895 131.934 57.7323ZM105.461 57.7323H126.278C126.114 52.8389 125.104 49.4301 123.246 47.5057C121.716 45.8012 119.257 44.949 115.87 44.949C112.482 44.949 109.996 45.8012 108.411 47.5057C106.554 49.4301 105.57 52.8389 105.461 57.7323Z"
    fill="white" />
  <path
    d="M173.151 58.6395C173.151 58.9144 173.124 59.2443 173.069 59.6292C173.124 60.0141 173.151 60.344 173.151 60.6189C173.151 64.1927 172.769 67.2717 172.004 69.8558C171.239 72.44 170.01 74.5293 168.316 76.1238C165.693 78.598 162.005 79.89 157.251 80H157.087C152.334 79.89 148.673 78.598 146.105 76.1238C142.881 73.0998 141.269 67.9315 141.269 60.6189C141.269 60.344 141.269 60.0141 141.269 59.6292C141.269 59.2443 141.269 58.9144 141.269 58.6395C141.269 51.3269 142.881 46.1586 146.105 43.1346C148.673 40.6604 152.334 39.3684 157.087 39.2584H157.251C162.005 39.3684 165.693 40.6604 168.316 43.1346C171.539 46.1586 173.151 51.3269 173.151 58.6395ZM167.414 60.6189C167.414 60.289 167.414 59.9866 167.414 59.7117V59.5467C167.414 59.1619 167.414 58.8595 167.414 58.6395C167.414 55.8354 167.196 53.5262 166.759 51.7118C166.376 49.8974 165.584 48.4129 164.382 47.2583C162.852 45.8287 160.448 45.059 157.169 44.949C153.891 45.059 151.487 45.8287 149.957 47.2583C148.809 48.4129 148.017 49.8974 147.58 51.7118C147.198 53.5262 147.006 55.8354 147.006 58.6395C147.006 58.9144 147.006 59.2168 147.006 59.5467V59.7117C147.006 60.0416 147.006 60.344 147.006 60.6189C147.006 63.423 147.198 65.7322 147.58 67.5466C148.017 69.361 148.809 70.8455 149.957 72.0001C151.487 73.4297 153.891 74.1719 157.169 74.2269C160.448 74.1719 162.852 73.4297 164.382 72.0001C165.584 70.8455 166.376 69.361 166.759 67.5466C167.196 65.7322 167.414 63.423 167.414 60.6189Z"
    fill="white" />
  <path
    d="M234.451 40.1656C234.943 40.1656 235.353 40.3855 235.68 40.8254C236.008 41.2652 236.09 41.7326 235.926 42.2274C233.413 49.7599 229.424 61.691 223.96 78.0207C223.742 78.7354 223.25 79.0928 222.485 79.0928H218.715C218.005 79.0928 217.513 78.7354 217.24 78.0207L208.142 50.6397L199.045 78.0207C198.826 78.7354 198.334 79.0928 197.569 79.0928H193.799C193.089 79.0928 192.597 78.7354 192.324 78.0207C191.723 76.0963 189.756 70.1582 186.423 60.2065C183.09 50.2548 181.096 44.2618 180.44 42.2274C180.276 41.7326 180.331 41.2652 180.604 40.8254C180.932 40.3855 181.369 40.1656 181.915 40.1656H184.62C185.385 40.1656 185.877 40.523 186.095 41.2378L195.684 70.0208C200.93 54.3509 204.126 44.7566 205.274 41.2378C205.492 40.523 205.984 40.1656 206.749 40.1656H209.535C210.3 40.1656 210.819 40.523 211.093 41.2378L220.6 70.0208C225.845 54.3509 229.042 44.7566 230.189 41.2378C230.462 40.523 230.954 40.1656 231.664 40.1656H234.451Z"
    fill="white" />
  <path
    d="M275.202 57.7323H275.284V60.9488C275.284 61.3886 275.12 61.7735 274.792 62.1034C274.464 62.3783 274.109 62.5158 273.727 62.5158H248.811C249.084 66.7494 250.259 69.7734 252.335 71.5878C254.412 73.3472 257.663 74.2269 262.089 74.2269C264.711 74.2269 267.143 73.4572 269.383 71.9177C270.148 71.3129 270.831 71.3678 271.432 72.0826C271.76 72.4125 272.361 73.0723 273.235 74.062C273.508 74.3918 273.617 74.8042 273.563 75.299C273.563 75.7389 273.372 76.0963 272.989 76.3712C269.711 78.7904 266.077 80 262.089 80C256.242 80 251.762 78.6529 248.647 75.9588C244.877 72.7149 242.992 67.2717 242.992 59.6292V59.5467C242.992 52.0692 244.522 46.7359 247.582 43.547C250.259 40.6879 254.084 39.2584 259.056 39.2584C264.083 39.2584 267.962 40.6879 270.694 43.547C273.481 46.461 274.983 51.1895 275.202 57.7323ZM248.729 57.7323H269.547C269.383 52.8389 268.372 49.4301 266.514 47.5057C264.984 45.8012 262.526 44.949 259.138 44.949C255.75 44.949 253.264 45.8012 251.68 47.5057C249.822 49.4301 248.838 52.8389 248.729 57.7323Z"
    fill="white" />
  <path
    d="M305.273 39.3409C305.656 39.3959 305.984 39.5608 306.257 39.8357C306.53 40.1106 306.667 40.468 306.667 40.9079V43.7119C306.667 44.2618 306.448 44.7016 306.011 45.0315C305.628 45.3064 305.191 45.3889 304.7 45.2789C304.208 45.114 303.689 45.0315 303.142 45.0315C301.394 44.9765 299.673 45.5813 297.979 46.8459C296.34 48.1105 294.946 49.5125 293.799 51.052C292.761 52.4266 291.969 53.9386 291.422 55.588V77.5258C291.422 77.9657 291.258 78.3505 290.931 78.6804C290.603 78.9553 290.247 79.0928 289.865 79.0928H287.242C286.805 79.0928 286.423 78.9553 286.095 78.6804C285.822 78.3505 285.685 77.9657 285.685 77.5258V41.7326C285.685 41.2927 285.822 40.9353 286.095 40.6604C286.423 40.3305 286.805 40.1656 287.242 40.1656H289.865C290.302 40.1656 290.657 40.3305 290.931 40.6604C291.258 40.9353 291.422 41.2927 291.422 41.7326V46.681C291.586 46.3511 291.723 46.1311 291.832 46.0212C295.274 41.4027 299.427 39.1484 304.29 39.2584C304.672 39.2584 305 39.2859 305.273 39.3409Z"
    fill="white" />
</svg>