<svg width="475" height="831" viewBox="0 0 475 831" fill="none" xmlns="http://www.w3.org/2000/svg">
<path fill-rule="evenodd" clip-rule="evenodd" d="M215.488 46.8018L321.8 93.5975L356.358 80.7255C469.766 38.4729 613.321 39.3977 716.788 83.0467L749.364 96.7875L858.994 48.5706C919.285 22.0448 974.248 0.273074 981.126 0.173773C997.799 -0.0558611 1022.63 21.0891 1026.96 39.2053C1030.33 53.3123 1026.51 69.7528 992.027 189.293C961.118 296.451 961.378 290.94 985.201 335.749C1041.45 441.549 1073.05 567.009 1074.15 688.901C1074.93 775.33 1066.26 817.36 1036.37 871.988C979.506 975.943 851.654 1048.41 690.64 1067.96C622.092 1076.28 451.585 1076.27 382.907 1067.95C260.804 1053.14 160.868 1009.22 90.3036 939.37C23.6423 873.384 -0.275582 807.045 0.00239455 688.901C0.2922 567.903 28.7523 447.525 82.2423 341.062L109.247 287.315L96.4487 241.407C89.4046 216.16 76.9784 171.76 68.8343 142.745C40.2204 40.8189 40.1849 40.1735 62.6656 13.9642C69.893 5.54224 81.4971 -2.81331e-07 91.9123 -3.17285e-07C101.405 -3.50054e-07 157.018 21.058 215.488 46.8018Z" fill="#F9A535"/>
</svg>
